<?xml version="1.0" standalone="no"?>
<!DOCTYPE svg PUBLIC "-//W3C//DTD SVG 20010904//EN"
 "http://www.w3.org/TR/2001/REC-SVG-20010904/DTD/svg10.dtd">
<svg version="1.0" xmlns="http://www.w3.org/2000/svg"
 width="512.000000pt" height="512.000000pt" viewBox="0 0 512.000000 512.000000"
 preserveAspectRatio="xMidYMid meet">
<metadata>
Created by potrace 1.11, written by Peter Selinger 2001-2013
</metadata>
<g transform="translate(0.000000,512.000000) scale(0.100000,-0.100000)"
fill="#000000" stroke="none">
<path d="M3107 4784 c-1 -1 -60 -5 -132 -8 -176 -9 -271 -23 -450 -68 -413
-103 -803 -368 -1080 -733 -198 -260 -360 -665 -390 -978 -3 -29 -7 -63 -9
-74 -18 -90 -26 -471 -12 -573 3 -25 10 -85 16 -135 6 -49 13 -97 15 -105 2
-8 6 -26 9 -40 2 -14 7 -36 10 -50 3 -14 8 -36 10 -50 10 -56 60 -210 97 -299
120 -287 282 -509 529 -725 94 -82 332 -222 450 -265 19 -7 44 -17 55 -21 54
-22 240 -71 325 -84 19 -3 48 -8 64 -11 163 -26 580 -26 736 -1 14 2 46 7 71
10 43 6 63 10 122 20 93 17 344 91 361 107 6 5 16 9 22 9 7 0 46 16 87 36 l75
36 -1 229 c0 126 -2 229 -5 229 -3 0 -53 -24 -111 -54 -279 -141 -578 -208
-931 -210 -104 0 -251 9 -300 19 -14 3 -41 8 -60 11 -519 92 -944 508 -1085
1063 -13 53 -26 107 -29 121 -2 14 -7 41 -10 60 -15 82 -18 136 -21 335 -4
335 32 560 132 810 180 452 555 785 1010 899 155 39 255 50 438 50 173 0 261
-8 396 -34 178 -35 339 -90 492 -166 37 -19 72 -34 76 -34 5 0 9 113 9 251 l1
250 -47 20 c-108 47 -276 93 -424 115 -119 19 -142 21 -303 29 -167 9 -206 11
-208 9z"/>
</g>
</svg>
